<!-- Waves -->
<svg xmlns="http://www.w3.org/2000/svg" preserveAspectRatio="xMidYMid meet" viewBox="0 0 1440 19">
	<path fill="{{svgBgColor}}" d="M1404,18c-12.729,0-23.273-18-36-18c-12.729,0-23.273,18-36,18c-12.729,0-23.273-18-36-18c-12.729,0-23.273,18-36,18c-12.729,0-23.273-18-36-18c-12.729,0-23.273,18-36,18c-12.729,0-23.273-18-36-18c-12.729,0-23.273,18-36,18c-12.729,0-23.273-18-36-18c-12.729,0-23.273,18-36,18c-12.729,0-23.273-18-36-18c-12.729,0-23.273,18-36,18c-12.729,0-23.273-18-36-18c-12.729,0-23.273,18-36,18c-12.729,0-23.273-18-36-18c-12.729,0-23.273,18-36,18c-12.729,0-23.273-18-36-18c-12.729,0-23.273,18-36,18c-12.729,0-23.273-18-36-18c-12.729,0-23.273,18-36,18c-12.729,0-23.273-18-36-18c-12.729,0-23.273,18-36,18c-12.729,0-23.273-18-36-18c-12.729,0-23.273,18-36,18c-12.729,0-23.273-18-36-18c-12.729,0-23.273,18-36,18c-12.729,0-23.273-18-36-18c-12.729,0-23.273,18-36,18c-12.729,0-23.273-18-36-18c-12.729,0-23.273,18-36,18c-12.729,0-23.273-18-36-18c-12.729,0-23.273,18-36,18c-12.729,0-23.273-18-36-18c-12.729,0-23.273,18-36,18c-12.729,0-23.273-18-36-18c-12.729,0-23.273,18-36,18C95.272,18,84.727,0,72,0C59.272,0,48.727,18,36,18C23.272,18,12.727,0,0,0v19c277.735,0,565.325,0,720,0c154.676,0,442.265,0,720,0V0C1427.272,0,1416.727,18,1404,18z"/>
</svg>