<!-- Zigzag -->
<svg viewBox="0 0 1440 24">
    <path d="M0,4L18,21.053L36,4L54,21.053L72,4L90,21.053L108,4L126,21.053L144,4L162,21.053L180,4L198,21.053L216,4L234,21.053L252,4L270,21.053L288,4L306,21.053L324,4L342,21.053L360,4L378,21.053L396,4L414,21.053L432,4L450,21.053L468,4L486,21.053L504,4L522,21.053L540,4L558,21.053L576,4L594,21.053L612,4L630,21.053L648,4L666,21.053L684,4L702,21.053L720,4L738,21.053L756,4L774,21.053L792,4L810,21.053L828,4L846,21.053L864,4L882,21.053L900,4L918,21.053L936,4L954,21.053L972,4L990,21.053L1008,4L1026,21.053L1044,4L1062,21.053L1080,4L1098,21.053L1116,4L1134,21.053L1152,4L1170,21.053L1188,4L1206,21.053L1224,4L1242,21.053L1260,4L1278,21.053L1296,4L1314,21.053L1332,4L1350,21.053L1368,4L1386,21.053L1404,4L1422,21.053L1440,4L1440,24L0,24L0,4Z" style="fill:{{svgBgColor}};fill-rule:nonzero;"/>
</svg>