<!-- Torn -->
<svg xmlns="http://www.w3.org/2000/svg" preserveAspectRatio="xMidYMid meet" viewBox="0 0 1440 24">
	<path fill="{{svgBgColor}}" d="M1440,16.996c-63.75,1.993-75.528-4.82-105-9.992c0.175,0.059-8.438,2.462-7.998,7.999
	c-0.439,5.291-37.999-0.747-53.994-1.011l-7.002,3.999c-4.071,2.112-7.97,3.271-12.569,4.575c-1.846-1.701-4.452-3.27-6.444-5.57
	c-56.776,0.294-63.896-5.172-124.979,0c-13.479,1.848-26.866,4.015-40.021,6.007c-42.305-4.777-30.908-4.556-73.008,0
	c-9.2-1.992-18.047-4.233-26.982-6.007c-79.658,8.439-52.245-10.361-94.844,5.404c-40.019-10.535-38.574-6.635-97.14-4.409
	c-12.891,1.101-19.334,4.705-19.013,5.012c-8.936-0.908-17.55-1.508-25.987-2.006c-5.946-2.111-11.688-4.104-17.021-5.994
	c-7.588,1.891-14.766,3.883-22.001,5.994c-7.852,0.702-15.748,0.904-23.995,1.403c-16.01-10.491-48.637-8.264-74.141,0
	c-3.501-0.426-5.956-0.216-9.868-0.392C594.009,21.187,589.702,20.572,585,20c-3.208-0.424-6.797-0.819-10.005-0.996
	c-6.123-1.319-11.865-2.419-17.988-4.001C537.964,11.78,508.798,25.919,483.999,12c-21.299-2.168-43.022-3.957-64.995-6.008
	c-4.542-1.143-9.565-2.344-15-4c-4.629,0.645-9.653,0.85-15,0.997c-3.267,2.257-6.855,4.47-10.005,7.003
	c-5.479-1.333-10.503-2.344-15.996-2.988c-3.838,1.45-8.159,3.253-11.997,4.996c-3.341,1.86-6.211,3.663-9.009,4.996
	c-7.251-0.324-14.428-1.127-22.002-1.993c-4.644-0.937-9.668-1.933-15-3.003c-6.167-3.957-12.627-7.984-18.999-12
	c-2.958,3.619-5.831,7.238-8.995,11.004c-6.899-1.759-14.077-3.385-21.005-5.012C240.659,7.004,225.586,8,210,8.996
	c0.499,0-25.356-0.6-36.006,0.996c-10.898,2.023-25.971,6.066-26,6.008C138.677,12.732,129.345,9.407,120,5.992
	c-28.242,0.088-16.714,6.184-68.994,7.004l-15-10.007C23.745,5.025,11.88,6.578,0,8v16h1440V16.996z"/>
</svg>
