<svg version="1.1" id="Layer_1" xmlns="http://www.w3.org/2000/svg" xmlns:xlink="http://www.w3.org/1999/xlink" x="0px" y="0px" viewBox="0 0 1440 72" enable-background="new 0 0 1440 72" xml:space="preserve">
<g>
	<path opacity="0.3" fill="{{svgBgColor}}" d="M360,11.993c120,0,240,10.085,360,30.251c34.031,5.344,68.06,9.904,102.091,13.731
		c85.97,9.673,171.938,14.536,257.909,14.536c111.63,0,223.258-8.164,334.887-24.473c8.37-1.222,16.743-2.48,25.113-3.795v-12.18
		c0,0-18.02,2.781-27.041,4.099c-110.554,16.151-222.611,24.341-333.06,24.341c-84.943,0-171.241-4.865-256.496-14.458
		c-34.062-3.831-68.206-8.423-101.491-13.649C601.867,10.226,480.143,0,360.1,0C240.63,0,119.487,10.134,0,30.113v12.131
		C119.999,22.078,240,11.993,360,11.993z"/>
	<path fill="{{svgBgColor}}" d="M1080,70.512c-85.971,0-171.939-4.863-257.909-14.536C788.06,52.148,754.031,47.588,720,42.244
		C600,22.078,480,11.993,360,11.993c-120,0-240.001,10.085-360,30.251V72h1440V42.244c-8.37,1.314-16.743,2.573-25.113,3.795
		C1303.258,62.348,1191.63,70.512,1080,70.512z"/>
</g>
</svg>